Coordinates
version=1
nRows=12
nColumns=24
inDegrees=yes

Units are S.I. units (second, meters, Newtons, ...)
Angles are in degrees.

endheader
time	pelvis_tilt	pelvis_list	pelvis_rotation	pelvis_tx	pelvis_ty	pelvis_tz	hip_flexion_r	hip_adduction_r	hip_rotation_r	knee_angle_r	ankle_angle_r	subtalar_angle_r	mtp_angle_r	hip_flexion_l	hip_adduction_l	hip_rotation_l	knee_angle_l	ankle_angle_l	subtalar_angle_l	mtp_angle_l	lumbar_extension	lumbar_bending	lumbar_rotation
      1.75300000	      7.21227566	      4.40450283	     -4.63210401	      1.41326442	      1.02412385	      0.26702870	      6.95861858	     -8.12796980	      0.03098874	    -64.14132013	      3.63907722	     -3.89343120	      3.24112095	     -1.65470599	     10.27418987	     11.73850191	    -13.75727314	      3.41575813	    -21.45510625	     -7.98769264	    -18.18867187	      0.01123509	      0.36387266
      1.75716667	      7.36340642	      4.20437013	     -4.54416982	      1.41776411	      1.02510588	      0.26665596	      7.30149837	     -7.91327841	     -0.08991457	    -63.59943090	      4.12169708	     -3.87333104	      3.09171603	     -2.39262360	     10.06325897	     11.96137078	    -13.19855422	      3.37265272	    -21.53714146	     -7.98978440	    -18.37878469	      0.35019636	      0.01453211
      1.76133333	      7.44008415	      4.02919359	     -4.44166369	      1.42220063	      1.02592658	      0.26628995	      7.72875304	     -7.71499292	     -0.21284271	    -63.04669390	      4.64293695	     -3.96148445	      2.83065312	     -3.02629622	      9.87049099	     12.17990348	    -12.67096071	      3.25344745	    -21.66617147	     -7.99790288	    -18.47759019	      0.65234933	     -0.26726290
      1.76550000	      7.49142924	      3.82637478	     -4.34504315	      1.42666315	      1.02666821	      0.26595654	      8.16645101	     -7.48097728	     -0.32764833	    -62.44058514	      5.07990151	     -4.01366340	      2.68743639	     -3.60858987	      9.63996234	     12.32427303	    -12.20191431	      3.27854899	    -21.66516418	     -7.99966968	    -18.55351350	      0.96320716	     -0.42683556
      1.76966667	      7.56196362	      3.63682137	     -4.25033737	      1.43108632	      1.02739373	      0.26564865	      8.57371487	     -7.25890041	     -0.43789402	    -61.79821539	      5.50701264	     -4.14889722	      2.51816028	     -4.21351936	      9.42253342	     12.47882309	    -11.71831785	      3.24709796	    -21.69596308	     -8.00363587	    -18.65743942	      1.25987807	     -0.64798424
      1.77383333	      7.63152071	      3.45024475	     -4.14323452	      1.43554181	      1.02806793	      0.26534029	      8.96407456	     -7.04186115	     -0.55907088	    -61.11841670	      5.89978031	     -4.31405169	      2.33711219	     -4.81749066	      9.20445864	     12.63978872	    -11.23621189	      3.22313802	    -21.72532952	     -8.00724837	    -18.75547208	      1.55592954	     -0.86869737
      1.77800000	      7.67457132	      3.27369815	     -4.02662212	      1.43994887	      1.02863982	      0.26501588	      9.38074215	     -6.84015181	     -0.69396306	    -60.41366155	      6.26807448	     -4.49687297	      2.14920658	     -5.37648310	      8.99505025	     12.80452152	    -10.78119491	      3.20450185	    -21.76285847	     -8.01112306	    -18.82441939	      1.84519610	     -1.09427524
      1.78216667	      7.73283760	      3.11738172	     -3.90885479	      1.44435053	      1.02918500	      0.26472486	      9.76939781	     -6.65948731	     -0.82455699	    -59.67561505	      6.60407214	     -4.71499559	      1.93302791	     -5.95160767	      8.80274443	     12.96694504	    -10.31706024	      3.17468606	    -21.79640202	     -8.01538909	    -18.91040722	      2.11078353	     -1.34017310
      1.78633333	      7.77032991	      2.95291093	     -3.79157026	      1.44876130	      1.02965459	      0.26444782	     10.16381367	     -6.46623005	     -0.94851998	    -58.89783781	      6.90873090	     -4.95644789	      1.70762361	     -6.49948562	      8.59851943	     13.12699427	     -9.86256547	      3.15635682	    -21.83966999	     -8.01905381	    -18.97024947	      2.38244547	     -1.55916186
      1.79050000	      7.80153012	      2.81963168	     -3.67241348	      1.45313780	      1.03003386	      0.26415075	     10.56798427	     -6.31962740	     -1.08098560	    -58.11417511	      7.27233396	     -5.09543631	      0.64363674	     -7.04493294	      8.43407494	     13.37229732	     -9.39242043	      3.01760929	    -22.11552654	     -8.03892543	    -19.01762399	      2.62382917	     -1.88485692
      1.79466667	      7.83519271	      2.65340825	     -3.53320171	      1.45755072	      1.03041191	      0.26387438	     10.93358281	     -6.12953853	     -1.22939098	    -57.25684682	      7.46603142	     -5.43895164	      0.53451817	     -7.54999202	      8.21862875	     13.45557753	     -9.01989384	      3.10673074	    -21.97869270	     -8.03573057	    -19.06832677	      2.88599882	     -1.97098791
      1.79883333	      7.84460805	      2.50759189	     -3.40560502	      1.46191088	      1.03067939	      0.26364081	     11.32705195	     -5.95532219	     -1.34863958	    -56.38941400	      7.66831560	     -5.73997350	      0.41571204	     -8.02803805	      8.02398108	     13.56918658	     -8.63622807	      3.15837789	    -21.92216049	     -8.03214505	    -19.10222016	      3.12708591	     -2.17465911
